<svg id="Layer_1" data-name="Layer 1" xmlns="http://www.w3.org/2000/svg" viewBox="0 0 190.22 190.22"><defs><style>.cls-1{fill:#231f20;}.cls-2{fill:#e98129;}.cls-3{fill:#fff;}.cls-4,.cls-5{fill:none;}.cls-5{stroke:#231f20;stroke-miterlimit:10;}</style></defs><title>Artboard 1</title><g id="Layer_1-2" data-name="Layer 1-2"><circle class="cls-1" cx="95.11" cy="95.11" r="95.11"/><circle class="cls-2" cx="97.79" cy="95.11" r="68.24"/><path class="cls-3" d="M97.44,165.07a70,70,0,1,1,70-70A70,70,0,0,1,97.44,165.07Zm0-136.49A66.53,66.53,0,1,0,164,95.11,66.53,66.53,0,0,0,97.44,28.58Z"/><polygon class="cls-1" points="141.04 67.96 139.24 71.07 135.65 71.07 133.85 67.96 135.65 64.85 139.24 64.85 141.04 67.96"/><path class="cls-1" d="M130.49,61.73h3.36l1.68-2.91a9.25,9.25,0,0,0-4.69,2.54Z"/><path class="cls-1" d="M141,61.73h3.36l-.35-.37a9.25,9.25,0,0,0-4.69-2.54Z"/><path class="cls-1" d="M146.32,65.05l-1.68,3,1.68,2.9A9.43,9.43,0,0,0,146.32,65.05Z"/><path class="cls-1" d="M139.5,76.86a9.37,9.37,0,0,0,4.55-2.51l.16-.17H141Z"/><path class="cls-1" d="M133.85,74.18h-3.36c.11.13.23.26.35.38a9.31,9.31,0,0,0,4.69,2.53Z"/><path class="cls-1" d="M128.58,70.87,130.26,68l-1.68-2.91A9.36,9.36,0,0,0,128.58,70.87Z"/><path class="cls-1" d="M137.45,77.92a10,10,0,1,1,7-2.92A10,10,0,0,1,137.45,77.92Zm0-18.68a8.72,8.72,0,1,0,6.16,2.56A8.71,8.71,0,0,0,137.45,59.24Z"/><line class="cls-4" x1="135.96" y1="65.39" x2="133.57" y2="61.25"/><rect class="cls-1" x="134.48" y="60.92" width="0.58" height="4.78" transform="translate(-13.59 75.92) rotate(-30.02)"/><line class="cls-4" x1="134.53" y1="67.97" x2="129.75" y2="67.94"/><rect class="cls-1" x="131.87" y="65.58" width="0.58" height="4.78" transform="translate(63.29 199.66) rotate(-89.61)"/><line class="cls-4" x1="145.18" y1="67.97" x2="140.4" y2="67.94"/><rect class="cls-1" x="142.97" y="65.78" width="0.58" height="4.78" transform="translate(73.66 210.74) rotate(-89.43)"/><line class="cls-4" x1="141.35" y1="74.52" x2="138.95" y2="70.38"/><rect class="cls-1" x="139.86" y="70.05" width="0.58" height="4.78" transform="translate(-17.44 79.83) rotate(-30.02)"/><line class="cls-4" x1="139.05" y1="65.39" x2="141.25" y2="61.15"/><rect class="cls-1" x="137.76" y="62.98" width="4.78" height="0.58" transform="translate(19.41 158.49) rotate(-62.56)"/><line class="cls-4" x1="133.57" y1="74.79" x2="135.78" y2="70.55"/><rect class="cls-1" x="132.28" y="72.39" width="4.78" height="0.58" transform="translate(8.11 158.71) rotate(-62.56)"/><polygon class="cls-2" points="16.04 123 20.48 125.34 19.63 120.39 23.22 116.89 18.26 116.17 16.04 111.68 13.82 116.17 8.86 116.89 12.45 120.39 11.6 125.34 16.04 123"/><polygon class="cls-2" points="174.29 123.7 178.72 126.03 177.88 121.09 181.47 117.59 176.5 116.87 174.29 112.37 172.07 116.87 167.1 117.59 170.69 121.09 169.85 126.03 174.29 123.7"/><path class="cls-3" d="M13,85.08c1.91.17,3.84,1.61,3.55,4.87l-.73,8,3.15.29a.52.52,0,0,1,.54.48.41.41,0,0,1,0,.11l-.13,1.45a.51.51,0,0,1-.53.49h-.1l-10.47-1a.52.52,0,0,1-.54-.48.41.41,0,0,1,0-.11l.9-9.94C8.94,86,11.1,84.91,13,85.08Zm-.23,2.52c-1-.09-1.38.39-1.52,1.87l-.72,8,2.8.25.72-8c.16-1.48-.18-2-1.26-2.12Z"/><path class="cls-3" d="M25.14,70l-.56,1.9a.8.8,0,0,1-.42.56L19.78,75l-1.6,5.5,3,.89a.52.52,0,0,1,.43.6.31.31,0,0,1,0,.08l-.41,1.4a.52.52,0,0,1-.63.38l-.08,0-10.07-3a.52.52,0,0,1-.44-.57l0-.11,2.78-9.58c.91-3.15,3.24-3.78,5.09-3.25a3.84,3.84,0,0,1,2.75,4.55l3.9-2.36C25,69.26,25.28,69.47,25.14,70Zm-9.36,9.82L18,72.11c.42-1.44.19-2-.85-2.33s-1.43.11-1.84,1.54L13.08,79Z"/><path class="cls-3" d="M25.8,67.5l-9.66-4.19a.51.51,0,0,1-.36-.62.36.36,0,0,1,0-.11l.58-1.33a.51.51,0,0,1,.65-.31l.1.05,9.66,4.19a.52.52,0,0,1,.36.63l0,.09-.58,1.34a.52.52,0,0,1-.67.3Z"/><path class="cls-3" d="M26.43,44.28l9,5.44a.51.51,0,0,1,.27.67.41.41,0,0,1-.05.09l-.75,1.25a1.09,1.09,0,0,1-.68.58L22.11,56.54l6.76,4.08a.52.52,0,0,1,.26.69.25.25,0,0,1,0,.07l-.75,1.25a.52.52,0,0,1-.7.21l-.08-.05-9-5.44a.53.53,0,0,1-.27-.69.56.56,0,0,0,.05-.08l.75-1.25a1.1,1.1,0,0,1,.68-.57l12.11-4.24-6.74-4.07a.53.53,0,0,1-.26-.7.43.43,0,0,1,0-.07l.76-1.25a.51.51,0,0,1,.68-.2Z"/><path class="cls-3" d="M44.19,36.37a.62.62,0,0,1,.6-.45h1.44a.52.52,0,0,1,.55.48.42.42,0,0,1,0,.16c-.14.89-1,2.93-3.78,5.89-3.85,4.1-7,5.06-10.24,2s-2.43-6.25,1.43-10.34C37,31.17,38.94,30.2,39.81,30a.52.52,0,0,1,.65.35.88.88,0,0,1,0,.16L40.61,32c0,.34-.11.46-.41.63A15,15,0,0,0,36.09,36c-3.14,3.33-3.22,5-1.54,6.63s3.39,1.4,6.53-1.93A14.83,14.83,0,0,0,44.19,36.37Z"/><path class="cls-3" d="M46.26,27l1.17,1.71L55.81,23a.52.52,0,0,1,.72.09l0,.09.7,1a.51.51,0,0,1,0,.72l-.08.06L48.79,30.7l1.1,1.6L59,26.07a.53.53,0,0,1,.74.12l0,.06.83,1.21a.52.52,0,0,1,0,.73l-.08.06L49.73,35.62a.52.52,0,0,1-.73-.1.22.22,0,0,1,0-.08l-6-8.68A.51.51,0,0,1,43,26a.2.2,0,0,1,.07-.06L53.9,18.6a.52.52,0,0,1,.72.09l.05.09L55.5,20a.51.51,0,0,1,0,.73.2.2,0,0,1-.07.06Z"/><path class="cls-3" d="M72.62,11.13l.54,1.37a.51.51,0,0,1-.21.7l-.08,0-5.53,2.18,3.11,7.88a.51.51,0,0,1-.19.7l-.1,0-1.36.54a.52.52,0,0,1-.68-.27l0-.08L65,16.35l-5.53,2.18a.52.52,0,0,1-.68-.27l0-.08-.54-1.37a.52.52,0,0,1,.18-.7l.1,0,13.4-5.28a.51.51,0,0,1,.68.23A.49.49,0,0,1,72.62,11.13Z"/><path class="cls-3" d="M93.06,13.15c.6,4.32-2,6.38-6.65,7l-1.65.23c-4.6.64-7.7-.64-8.29-5s2-6.38,6.63-7l1.65-.23C89.37,7.55,92.47,8.89,93.06,13.15Zm-2.57.35c-.31-2.22-1.84-3.24-5.39-2.75L83.46,11c-3.53.49-4.73,1.89-4.42,4.11s1.84,3.23,5.37,2.75l1.64-.23C89.6,17.12,90.81,15.79,90.49,13.5Z"/><path class="cls-3" d="M112,9.71l-1.19,10.46a.5.5,0,0,1-.6.52l-1.45-.16a1.09,1.09,0,0,1-.81-.38l-8.89-9.26-.9,7.83a.51.51,0,0,1-.49.53h-.11l-1.45-.16a.53.53,0,0,1-.48-.57.22.22,0,0,1,0-.08L96.86,8a.51.51,0,0,1,.49-.53h.11l1.45.17a1.15,1.15,0,0,1,.81.38l8.89,9.24.89-7.82a.53.53,0,0,1,.51-.53h.09l1.45.17a.51.51,0,0,1,.45.58Z"/><path class="cls-3" d="M127.45,19.42c3,1.76,6.45,3.73,5.27,6.32-1.11,2.43-4.15,2.18-8,.4l-.17-.08c-4-1.82-5.7-3.54-6.18-4.31a.52.52,0,0,1,.12-.73l.14-.07,1.29-.55a.54.54,0,0,1,.72.18,14.9,14.9,0,0,0,5,3.2l.17.08c3.16,1.44,4.37,1.37,4.61.85.37-.8-1.26-1.56-3.94-3.13-4-2.39-6.39-3.92-5.24-6.44,1-2.27,3.78-2.19,7.94-.29l.35.16c3.37,1.54,5.08,3.26,5.54,4a.52.52,0,0,1-.12.73.61.61,0,0,1-.14.07l-1.27.56a.58.58,0,0,1-.74-.19,13.72,13.72,0,0,0-4.31-2.91l-.35-.16c-3.42-1.56-4.35-1.29-4.57-.82C123.15,17,124.63,17.73,127.45,19.42Z"/><path class="cls-3" d="M149.54,33c-1.17,1.52-3.42,2.38-6,.39l-6.33-4.87L135.29,31a.52.52,0,0,1-.71.19l-.07,0-1.16-.89a.51.51,0,0,1-.14-.71.27.27,0,0,1,.07-.08l6.41-8.35a.52.52,0,0,1,.71-.2l.08.06,7.91,6.08C151,29.09,150.71,31.49,149.54,33Zm-2-1.55c.64-.83.41-1.37-.77-2.27l-6.33-4.87-1.71,2.23,6.33,4.86c1.17.93,1.81.93,2.47.07Z"/><path class="cls-3" d="M161.1,49.24c-3.35,2.79-6.5,1.64-9.48-2L150.56,46c-3-3.58-3.52-6.88-.17-9.67s6.5-1.64,9.48,1.94l1.06,1.27C163.91,43.16,164.41,46.5,161.1,49.24Zm-1.66-2c1.73-1.43,1.78-3.27-.51-6L157.87,40c-2.27-2.74-4.09-3-5.82-1.59s-1.77,3.27.5,6l1.06,1.28C155.9,48.39,157.67,48.72,159.44,47.24Z"/><path class="cls-3" d="M164.26,67.48l-.92-1.76a.82.82,0,0,1-.08-.7l1.4-4.87L162,55.07l-2.8,1.46a.51.51,0,0,1-.71-.1.53.53,0,0,1-.06-.1l-.68-1.3a.52.52,0,0,1,.2-.71l.07,0,9.34-4.87a.51.51,0,0,1,.72.12.35.35,0,0,1,0,.08l4.62,8.85c1.51,2.91.27,5-1.44,5.86A3.83,3.83,0,0,1,166.19,63L165,67.35C164.87,67.86,164.49,67.93,164.26,67.48Zm0-13.57L167.92,61c.69,1.33,1.27,1.6,2.23,1.09s.95-1.06.26-2.38l-3.69-7.09Z"/><path class="cls-3" d="M179.9,80.35l-1.41.43a.54.54,0,0,1-.7-.28s0,0,0-.07l-1.7-5.69L168,77.17a.51.51,0,0,1-.68-.25l0-.1-.42-1.39a.52.52,0,0,1,.31-.67l.09,0,8.12-2.43-1.71-5.69A.52.52,0,0,1,174,66l.08,0,1.41-.43a.52.52,0,0,1,.68.27l0,.08,4.14,13.81a.51.51,0,0,1-.31.65A.32.32,0,0,1,179.9,80.35Z"/><path class="cls-3" d="M177.29,91.55c0,3.44.07,7.45-2.76,7.75-2.66.28-4-2.47-4.44-6.73v-.19c-.46-4.36.15-6.71.56-7.51a.53.53,0,0,1,.68-.28.56.56,0,0,1,.15.1l1.13.82a.54.54,0,0,1,.21.72,14.62,14.62,0,0,0-.24,5.89v.19c.36,3.45,1,4.46,1.61,4.4.88-.09.71-1.88.7-5,0-4.71.11-7.5,2.87-7.79,2.48-.26,3.81,2.15,4.29,6.7V91c.39,3.68-.22,6-.64,6.82a.53.53,0,0,1-.69.27,1,1,0,0,1-.13-.09l-1.13-.81a.58.58,0,0,1-.21-.74,13.55,13.55,0,0,0,.31-5.19v-.38c-.4-3.74-1.11-4.41-1.62-4.35C177.17,86.62,177.31,88.26,177.29,91.55Z"/><path class="cls-3" d="M36.91,157c-1.37,1.18-3.17,1-5.67-1.94L24,146.64a.51.51,0,0,1-.07-.72l.07-.07,7.21-6.21a.52.52,0,0,1,.73,0,.2.2,0,0,1,.06.07l6.79,7.89c2.47,2.88,1.81,4.7.78,5.59a1.93,1.93,0,0,1-2.11.35A2.67,2.67,0,0,1,36.91,157Zm-1.6-2.3c.66-.56.15-1.43-.87-2.61l-5.67-6.59-1.57,1.3,5.68,6.59c1,1.2,1.82,1.79,2.43,1.26Zm-3.57-11.8-1.46,1.25,5.2,6c1.05,1.22,1.65,1.57,2.2,1.09s.3-1.13-.74-2.34Z"/><path class="cls-3" d="M55.27,167.14c-2.22,3.26-5.69,2.75-9.93-.13l-1.51-1c-4.22-2.87-6-5.91-3.78-9.17s5.69-2.75,9.92.12l1.51,1C55.71,160.84,57.45,163.93,55.27,167.14Zm-2.36-1.6c1.14-1.67.5-3.44-2.75-5.64l-1.5-1c-3.24-2.2-5.11-2.14-6.25-.46s-.5,3.44,2.74,5.63l1.5,1C49.9,167.28,51.74,167.27,52.91,165.54Z"/><path class="cls-3" d="M74.5,174.24c-1.32,3.71-4.81,4.09-9.64,2.37L63.14,176c-4.81-1.71-7.28-4.21-6-7.92S62,164,66.81,165.7l1.72.6C73.35,168,75.81,170.58,74.5,174.24Zm-2.68-1c.68-1.91-.38-3.45-4.08-4.77L66,167.9c-3.69-1.31-5.49-.78-6.16,1.13s.38,3.46,4.06,4.77l1.71.61c3.73,1.31,5.51.84,6.21-1.13Z"/><path class="cls-3" d="M91.68,181.64l-2.45-.29a1.37,1.37,0,0,1-.69-.29l-6.48-5.77-2.84,1-.39,3.33a.52.52,0,0,1-.56.48l-.09,0-1.59-.18a.5.5,0,0,1-.52-.6l1.09-9.45a.52.52,0,0,1,.56-.48l.09,0,1.59.19a.49.49,0,0,1,.52.59l-.41,3.62,8.94-3a1.76,1.76,0,0,1,.79-.06l3.13.36c.59.07.65.45.1.63l-8,2.75,7.46,6.6C92.4,181.4,92.23,181.7,91.68,181.64Z"/><path class="cls-3" d="M115,176.43a.76.76,0,0,1,.82,0l1.18.79a.43.43,0,0,1,.18.58.39.39,0,0,1-.18.18c-.72.57-2.86,1.63-7.27,2.32-6.1,1-9.46,0-10.08-4s2.28-5.89,8.38-6.85c4.37-.69,6.73-.34,7.6,0a.42.42,0,0,1,.34.5.4.4,0,0,1-.12.23L115,171.3a.75.75,0,0,1-.78.24,20.14,20.14,0,0,0-5.8.27c-5,.78-6.22,2-5.89,4.06s1.89,2.84,6.86,2.06A19.78,19.78,0,0,0,115,176.43Z"/><path class="cls-3" d="M120.44,167.28l2.84,7.11,10.8-4.3a.53.53,0,0,1,.72.21l0,.07.49,1.23a.52.52,0,0,1-.27.68l-.08,0-12.85,5.11a.52.52,0,0,1-.7-.18.36.36,0,0,1,0-.09l-3.52-8.84a.52.52,0,0,1,.27-.68l.08,0,1.49-.59a.52.52,0,0,1,.7.18A.36.36,0,0,1,120.44,167.28Z"/><path class="cls-3" d="M145.9,153.36l2.66,3.95c2.2,3.25.7,6.12-3.67,9.07l-.45.3c-4.37,3-7.59,3.27-9.79,0L132,162.76a.5.5,0,0,1,.1-.71l.09-.06,1.33-.9a.51.51,0,0,1,.72,0l.06.08,2.66,3.94c1.22,1.81,2.89,1.79,6.16-.42l.45-.3c3.41-2.3,3.91-3.76,2.69-5.56l-2.66-3.94a.52.52,0,0,1,.12-.73l.07,0,1.33-.9a.53.53,0,0,1,.75.07Z"/><path class="cls-3" d="M164.11,143.27c1.38,1.17,1.46,3-1,5.91L156,157.61a.49.49,0,0,1-.68.18l-.1-.07-7.28-6.13a.54.54,0,0,1-.05-.75l.05-.05,6.72-8c2.44-2.89,4.35-2.52,5.39-1.65a1.91,1.91,0,0,1,.67,2A2.7,2.7,0,0,1,164.11,143.27Zm-13.05,7.33,1.46,1.24,5.15-6.09c1-1.23,1.28-1.88.72-2.34s-1.16-.12-2.19,1.1Zm11-5.39c-.66-.56-1.44.08-2.44,1.27L154,153.12l1.58,1.34,5.61-6.65c1.06-1.21,1.52-2.08.9-2.6Z"/><path class="cls-1" d="M66.45,124.5l-.8.13a5.29,5.29,0,0,1-.37-1.47V123a2.16,2.16,0,0,0-.38-1.52,2.1,2.1,0,0,1-.31-.91,18.31,18.31,0,0,1-.17-3.39,1.63,1.63,0,0,0-.14-.72,18.06,18.06,0,0,0-.88-1.69,1.22,1.22,0,0,1-.11-1.32,1.24,1.24,0,0,0-.08-1.37,10.54,10.54,0,0,0-.71-1,4.38,4.38,0,0,1-.84-2.11,2.5,2.5,0,0,0-.36-1,8.38,8.38,0,0,0-.68-1,7.16,7.16,0,0,1-1.16-2.16c-.11-.34-.25-.68-.36-1a4.25,4.25,0,0,1,0-1.74c.08-.66.22-1.31.34-2,.06-.35.05-.39-.26-.57l-1.13-.67.5-.32a1.73,1.73,0,0,0,.82-1.39,1.22,1.22,0,0,1,.4-.86,19.66,19.66,0,0,1,1.67-1.4c.57-.4.85-.65,1.29-1a17.13,17.13,0,0,0,3.73-3.43A13,13,0,0,1,69.14,88c1.39-1,2.84-1.86,4.32-2.68a10.51,10.51,0,0,0,1.7-1.1,3.27,3.27,0,0,1,1.31-.67,4.12,4.12,0,0,0,.69-.27l2-1a5.08,5.08,0,0,1,2.65-.53,26.88,26.88,0,0,1,4.1.52c.7.14,1.4.3,2.11.42a2.3,2.3,0,0,1,1.06.46.82.82,0,0,0,.87.16,1.37,1.37,0,0,1,1.2.08.63.63,0,0,0,.88-.2l0,0c.08-.1.14-.21.22-.32a9.4,9.4,0,0,1,1.35-1.4c-.23-.4.65.06.68-.14s.16-.2.27-.26a3.67,3.67,0,0,0,.8-.55,3.42,3.42,0,0,1,2-.81h.19a3.22,3.22,0,0,1,2.48.7,1,1,0,0,1,.33.46,2.26,2.26,0,0,0,.45.74l.17-.12s.06,0,.07.09.21.47.33.7.24.32.45.18l.94,1c.19.21.37.41.29.73,0,.07.07.17.07.25a.7.7,0,0,1-.3.64.35.35,0,0,0-.2.41c-.53-.11-.73.2-.93.59a3.62,3.62,0,0,1-.58.77,1.34,1.34,0,0,0-.35.61,2,2,0,0,1-.66,1.12.85.85,0,0,0-.29.53c-.08.49-.16,1-.25,1.46a.89.89,0,0,1,0,.23.23.23,0,0,1-.26.2l-.06,0-.64-.19a.43.43,0,0,0-.55.16.5.5,0,0,1-.67.19q-.3,0-.6-.06l.22.76H96.8a.46.46,0,0,0-.61.23,4.16,4.16,0,0,1-.32.39.87.87,0,0,1-1.21.2l-.11-.09a4.79,4.79,0,0,1-.85-1,1.91,1.91,0,0,0-1-.81,8,8,0,0,0-2.21-.44,1.23,1.23,0,0,0-1.29,1.15c-.09,1.07-.16,2.15-.25,3.23a10.4,10.4,0,0,1-.16,1.28h.31a19.74,19.74,0,0,1,2.77-.2,21.81,21.81,0,0,0,2.8-.17c1-.14,2.06-.42,3.09-.65a4.51,4.51,0,0,0,.52-.17.89.89,0,0,0,.54-.53l.09-.26a5.48,5.48,0,0,1,1-2.11,7.32,7.32,0,0,0,.62-1.13,3.8,3.8,0,0,0,.23-.94,5.15,5.15,0,0,1,.39-1.43c.17-.43.36-.86.54-1.29.09-.22.17-.43.46-.48.1,0,.18-.14.27-.21a.2.2,0,0,1,.33.16.81.81,0,0,1,0,.31c-.16,1.1-.34,2.19-.49,3.28a11.73,11.73,0,0,0-.11,1.33,11.93,11.93,0,0,1-.85,4c-.11.24-.23.47-.36.7a1.41,1.41,0,0,1-.77.63,1.56,1.56,0,0,0-.6.34,5,5,0,0,1-1.12.71,39.87,39.87,0,0,1-6.75,2.64,26.32,26.32,0,0,1-3.6.9,5.18,5.18,0,0,1-2,0,1.9,1.9,0,0,1-1.43-1.25A13.48,13.48,0,0,1,84,97.78a5.61,5.61,0,0,0,0-.58.35.35,0,0,0-.18-.26.3.3,0,0,0-.32.21,9,9,0,0,0-.31,1.13c-.09.58-.12,1.16-.17,1.75l-.21,2.29v.51a.59.59,0,0,1-.23.51.54.54,0,0,0-.15.29c-.11.72-.21,1.45-.31,2.17a5,5,0,0,0,.18,1.54,12,12,0,0,1,.14,3.38,24.88,24.88,0,0,0-.16,3.86,10.18,10.18,0,0,0,.51,2.79,3.13,3.13,0,0,1,.09,1.55c-.13.66-.31,1.32-.45,2a1.7,1.7,0,0,1-.42.82l-1.47,1.46a.66.66,0,0,0-.25.77c.13.5.21,1,.31,1.53a2.54,2.54,0,0,1,0,.39,18.84,18.84,0,0,1-.63,4.78,25.7,25.7,0,0,0-.86,4.24c-.13,1-.26,1.94-.37,2.91-.08.75-.12,1.5-.18,2.25,0,.34,0,.68-.07,1v.43h.22a.26.26,0,0,1,.26.26v0a3.75,3.75,0,0,1,0,.82,1.82,1.82,0,0,0,1,1.87c1.24.82,2.49,1.62,3.72,2.44a3.08,3.08,0,0,0,1.44.45h.2c.59,0,.84.14.94.89a1.29,1.29,0,0,1-1,1.46,4.47,4.47,0,0,1-1.31.15,17.63,17.63,0,0,1-2-.24,4.72,4.72,0,0,0-2.6.31,10.17,10.17,0,0,1-3.2.8c-.47.05-.94.07-1.41.09a4.26,4.26,0,0,1-1.46-.2,10.38,10.38,0,0,0-1.1-.27,4.58,4.58,0,0,0-2.26.25,2,2,0,0,1-1.48-.08.71.71,0,0,1-.57-.84.29.29,0,0,1,0-.09.67.67,0,0,1,0-.2,2.58,2.58,0,0,0-.08-1.53,2,2,0,0,1,.06-1.38,1.94,1.94,0,0,0,.08-1.44.72.72,0,0,1,.35-.94.45.45,0,0,0,.22-.52,1.29,1.29,0,0,0-.07-.51.83.83,0,0,1,.27-.81.33.33,0,0,0,.09-.35c-.18-1-.32-1.93-.55-2.88a17.65,17.65,0,0,0-.72-2,12.47,12.47,0,0,1-.85-2.59,12.07,12.07,0,0,1-.11-3.84,7.84,7.84,0,0,1,.24-1.15,4.29,4.29,0,0,0-.18-2.3,2.88,2.88,0,0,1-.15-.72V124.5Zm12.61-5.66a1.15,1.15,0,0,0,.12-.25c.11-.7.25-1.39.31-2.09a4.9,4.9,0,0,0-.07-1.43,30.84,30.84,0,0,1-.79-5.24v-2.61a9.94,9.94,0,0,0-.11-2.18,4.53,4.53,0,0,0-.14-.72l-.79.16v-3.63a4,4,0,0,0,0-.49l-.33.16c-.32.22-.64.46-1,.67a.39.39,0,0,0-.2.46,4.15,4.15,0,0,0,.16.84.63.63,0,0,1-.1.59.73.73,0,0,0-.15.76,2,2,0,0,1,.06.35c.09.64.18,1.28.26,1.93a16.38,16.38,0,0,0,.22,1.85c.37,1.51.8,3,1.24,4.52a7.78,7.78,0,0,1,.45,2.75,2.37,2.37,0,0,0,.09.65c.22.86.45,1.72.67,2.57C79,118.59,79,118.72,79.06,118.84ZM74,144.53a2.21,2.21,0,0,0,.44-1.1c0-.46-.09-.93-.12-1.39a3.21,3.21,0,0,1,0-.62c0-.3.11-.59.12-.89v-2.22a3.09,3.09,0,0,0,0-.43c-.15-1.19-.32-2.37-.46-3.56a13.08,13.08,0,0,1,.23-4.23,11.4,11.4,0,0,0,.32-1.28,25.28,25.28,0,0,0,.08-2.61,1.5,1.5,0,0,0-1.43-1.36v.37c-.07.66-.13,1.32-.21,2s-.18,1.39-.31,2.08a3.07,3.07,0,0,0,0,1.28,3,3,0,0,1,.09.73c.06,1.14.14,2.29.17,3.43,0,1.46.08,2.92,0,4.37a11.3,11.3,0,0,0,.19,2.17c0,.16,0,.35.23.43a.5.5,0,0,1,.3.6,11.54,11.54,0,0,1-.1,1.17A1.39,1.39,0,0,0,74,144.53Z"/><path class="cls-1" d="M103.55,87.31c.51.09.58.15.6.59s0,.91,0,1.37a4.66,4.66,0,0,0,.08,1.12c.14.82.24,1.65.33,2.47a2.67,2.67,0,0,0,.18.79c.64,1.41,1.28,2.83,1.91,4.24.13.3.24.61.35.92a1.08,1.08,0,0,0,.59.63c.68.3,1.35.63,2,.94a.41.41,0,0,0,.47,0c.09-.06.25,0,.37,0,.48.16,1,.35,1.43.52a1.66,1.66,0,0,1,.37.09,1,1,0,0,0,0-.75c0-.08-.16-.16-.26-.18-.29-.07-.59-.1-.88-.16-.62-.15-.81-.46-.69-1.09a.61.61,0,0,0,0-.19.58.58,0,0,1,.35-.66l0-.1-.36-.23a2.33,2.33,0,0,0,.07-.25.56.56,0,0,0-.13-.58c-.25-.28-.24-.28,0-.58l.27-.34a2.87,2.87,0,0,0,.47-1c.11-.44.22-.89.37-1.31a.54.54,0,0,0-.11-.6,6.64,6.64,0,0,1-.68-.9,5.13,5.13,0,0,1-.41-1,1.55,1.55,0,0,1,0-.43l.41.12c.46.17.91.33,1.36.51a.91.91,0,0,0,.61,0,9.26,9.26,0,0,1,3.8-.5,4.36,4.36,0,0,1,3.78,2.33,5.63,5.63,0,0,1,.73,2.25,2.28,2.28,0,0,1-.39,1.56c-.47.64-1,1.27-1.46,1.88a6.09,6.09,0,0,1-.77.66.51.51,0,0,1-.54.09.29.29,0,0,0-.35.12c-.29.37-.72.64-.85,1.14a.22.22,0,0,1-.16.16c-.36.12-.33.43-.36.71a.61.61,0,0,0,.15.3c.19.28.39.55.58.82l.73,1.06c.24.35.54.77.79,1.17a.8.8,0,0,1,.15.47,6.77,6.77,0,0,0,.43,2.6c.13.44.31.86.43,1.29a3.45,3.45,0,0,1,.08.85,8.18,8.18,0,0,0,0,1.4c.1,1.05.25,2.09.38,3.13a1.32,1.32,0,0,0,.48.87,1.54,1.54,0,0,1,.56.91,26.71,26.71,0,0,0,1.55,4.54,7,7,0,0,1,.53,3.09c0,.92-.12,1.85-.21,2.76a13.84,13.84,0,0,0,0,2.73c.09.87.16,1.74.29,2.6.1.68.27,1.35.41,2,.06.29.14.58.18.87a1,1,0,0,0,.32.57l.83.83a8.79,8.79,0,0,1,2.25,3.61c.33,1,.68,2.05,1,3.07a1.18,1.18,0,0,0,.1.3.29.29,0,0,0,.3.25,1.32,1.32,0,0,1,1,.63c.46.65.91,1.3,1.34,2a5.39,5.39,0,0,1,.39.93.62.62,0,0,1-.17.68,1.85,1.85,0,0,1-.47.41,6.13,6.13,0,0,1-2.13.92,5.3,5.3,0,0,0-2.21.94,9.2,9.2,0,0,1-1.54.84,1.82,1.82,0,0,1-2-.28c-.46-.39-.42-.8.11-1.08a5.83,5.83,0,0,0,1.61-1.4.67.67,0,0,0,.16-.3,7.89,7.89,0,0,1,.67-2c.17-.39.32-.8.48-1.2a.53.53,0,0,0,0-.52c-.47-.82-.92-1.66-1.41-2.47a4.73,4.73,0,0,0-.67-.81,19.88,19.88,0,0,1-2.87-4c-.36-.66-.36-.64-1.09-.52q-.73.12-1.47.18c-.37,0-.4,0-.51-.35-.18-.54-.18-.54-.74-.52s-.64,0-.87.62a2.34,2.34,0,0,0-.17,1.14,41.51,41.51,0,0,1,.09,5.11c0,.59-.12,1.17-.17,1.75s-.12,1.22-.12,1.83a3.37,3.37,0,0,0,.16,1c.23.83.5,1.65.73,2.48a4.81,4.81,0,0,1,.13,1,.46.46,0,0,1-.39.51l-1.53.28a.81.81,0,0,1-.31,0,7.77,7.77,0,0,0-2.72,0c-.63.06-1.26.16-1.9.19a6.07,6.07,0,0,1-1.2-.09,2.68,2.68,0,0,1-1.56-1,1,1,0,0,1-.17-.89.56.56,0,0,1,.55-.47,4.92,4.92,0,0,1,.94,0,1,1,0,0,0,.7-.15l1.14-.75.33-.22a2.48,2.48,0,0,0,.94-.79.06.06,0,0,1,0-.06,2,2,0,0,0,.85-1.34,2.51,2.51,0,0,0,.1-.61c-.06-1.26-.14-2.52-.2-3.78a8.34,8.34,0,0,1,0-1,11.81,11.81,0,0,0-.07-2.85c-.07-.53-.08-1.06-.1-1.6a.36.36,0,0,0-.28-.39c-.36-.12-.36-.16-.34-.54a12.74,12.74,0,0,1,.41-2.3,10.3,10.3,0,0,0,.29-2.47,3.39,3.39,0,0,1,.18-1,2,2,0,0,0,.08-1,1.57,1.57,0,0,1,0-.61,2.58,2.58,0,0,1,.23-.54.74.74,0,0,0,0-.81c-.58-.86-.52-.93-.27-1.74a1.6,1.6,0,0,0,0-.92,2.1,2.1,0,0,1-.09-.5.68.68,0,0,0-.32-.51,4.5,4.5,0,0,1-.74-.56,1,1,0,0,1-.29-1,.89.89,0,0,0,0-.23,4.32,4.32,0,0,0-.1-1.13.93.93,0,0,0-.15-.39,1.85,1.85,0,0,1-.37-.89,1.12,1.12,0,0,0-.14-.4,2.38,2.38,0,0,1-.4-1.32,6.9,6.9,0,0,0-.09-.78c0-.26-.09-.37-.42-.33-.53.07-1.06.12-1.58.24a1.94,1.94,0,0,1-1.14-.13,4,4,0,0,1-.46-.23,1.37,1.37,0,0,1-.69-1.34c0-.33,0-.67.08-1s.2-.49.55-.37a1.74,1.74,0,0,0,1.15,0,1.88,1.88,0,0,1,1.34.06l.62.22a1.13,1.13,0,0,0,0-.68,11.74,11.74,0,0,1,0-2.65c.15-.87.33-1.74.49-2.61s.28-1.66.42-2.5c.06-.34,0-.38-.29-.55s-.59-.33-.89-.48a.51.51,0,0,1-.29-.5c0-.41,0-.41-.39-.56q-.89-.35-1.77-.72a5,5,0,0,1-1.7-1.41,2,2,0,0,1-.36-.81c-.35-1.65-.69-3.31-1-5a2.12,2.12,0,0,0-.53-1.19.85.85,0,0,1-.21-.37,2.92,2.92,0,0,1,0-2.21,7.41,7.41,0,0,0,.38-1.86c.1-.61.22-1.21.33-1.81Z"/><path class="cls-1" d="M63.28,151s24-.6,59.12,2.8"/><path class="cls-1" d="M63.28,150.8a84.29,84.29,0,0,1,14.85-1.9c1.24-.09,2.49-.14,3.72-.15l3.73-.05c2.48,0,5,.11,7.43.19s4.95.31,7.41.55,4.94.51,7.39.93a94.79,94.79,0,0,1,14.61,3.23v.3c-4.92-.44-9.83-.85-14.75-1.18s-9.85-.61-14.78-.84-9.85-.48-14.78-.62-9.87-.22-14.8-.16Z"/><path class="cls-1" d="M99,78.72a4,4,0,0,0-4.9,1.73l-1-1c-.21-.21-1.1-.77-1.32-.56s.35,1.11.56,1.32l1.29,1.3c-.5,2.51,2.49,5,4.64,5a4.09,4.09,0,0,0,4.33-3.81C102.65,80.57,101.27,79.39,99,78.72Z"/><polyline class="cls-5" points="111.3 55 114.12 55 114.12 58.55 114.12 62.11 114.12 65.67 114.12 69.22 109.71 69.22 105.3 69.22 100.89 69.22 96.48 69.22 92.41 69.22 88.34 69.22 84.27 69.22 80.2 69.22 80.2 65.67 80.2 62.11 80.2 58.55 80.2 55 83.03 55"/><polygon class="cls-5" points="97.16 68.28 86.88 62.28 87.05 48.96 97.16 55.17 97.42 55.17 107.53 48.96 107.7 62.28 97.42 68.28 97.16 68.28"/><polyline class="cls-5" points="107.44 52.59 111.55 51.32 111.55 65.99 97.27 68.69 97.16 68.71 82.77 65.99 82.77 51.32 86.88 52.59"/><line class="cls-5" x1="97.16" y1="68.28" x2="97.16" y2="55.17"/><polygon class="cls-3" points="96.44 43.48 100.67 45.7 99.86 40.99 103.28 37.65 98.55 36.96 96.44 32.68 94.32 36.96 89.59 37.65 93.01 40.99 92.21 45.7 96.44 43.48"/><polygon class="cls-3" points="122.4 49.99 126.64 52.21 125.83 47.5 129.25 44.16 124.52 43.48 122.4 39.19 120.29 43.48 115.56 44.16 118.98 47.5 118.17 52.21 122.4 49.99"/><polygon class="cls-3" points="72.01 50.59 76.25 52.81 75.44 48.1 78.86 44.76 74.13 44.08 72.01 39.79 69.9 44.08 65.17 44.76 68.59 48.1 67.78 52.81 72.01 50.59"/><path class="cls-1" d="M51.89,74.94a.66.66,0,0,1-.44-.17.65.65,0,0,1,0-.91,9,9,0,0,0,1-10.86.62.62,0,0,1,.19-.87h0a.65.65,0,0,1,.89.2,10.27,10.27,0,0,1-1.23,12.42A.63.63,0,0,1,51.89,74.94Z"/><path class="cls-1" d="M65.41,74.72a.63.63,0,0,1-.48-.21,10.24,10.24,0,0,1,.14-13.7.63.63,0,0,1,.9,0,.63.63,0,0,1,0,.9h0a9,9,0,0,0-.12,12,.64.64,0,0,1-.06.9A.6.6,0,0,1,65.41,74.72Z"/><path class="cls-1" d="M64.82,71.89h-.06l-2.37-.22a.64.64,0,0,1,.11-1.27l2.38.21a.65.65,0,0,1,.58.7A.64.64,0,0,1,64.82,71.89Z"/><path class="cls-1" d="M64.08,68.81a.73.73,0,0,1-.29-.07l-2.13-1.07a.64.64,0,0,1-.36-.83.63.63,0,0,1,.82-.36l.11,0,2.13,1.07a.62.62,0,0,1,.29.84h0A.63.63,0,0,1,64.08,68.81Z"/><path class="cls-1" d="M64.5,65.67a.64.64,0,0,1-.47-.21l-1.6-1.77a.66.66,0,0,1,1-.86h0L65,64.6a.62.62,0,0,1-.5,1.07Z"/><path class="cls-1" d="M52.67,71.89a.63.63,0,0,1-.63-.58.65.65,0,0,1,.58-.7L55,70.4a.65.65,0,0,1,.7.58.64.64,0,0,1-.58.69l-2.38.22Z"/><path class="cls-1" d="M53.42,68.81a.63.63,0,0,1-.57-.36.64.64,0,0,1,.27-.85h0l2.13-1.07a.64.64,0,1,1,.62,1.12l0,0L53.7,68.74A.68.68,0,0,1,53.42,68.81Z"/><path class="cls-1" d="M53,65.67a.67.67,0,0,1-.43-.16.65.65,0,0,1,0-.91l1.59-1.77a.65.65,0,0,1,.91,0,.63.63,0,0,1,0,.89h0L53.48,65.5A.65.65,0,0,1,53,65.67Z"/><path class="cls-1" d="M58.75,78A10.24,10.24,0,1,1,69,67.74,10.23,10.23,0,0,1,58.75,78Zm0-19.19a9,9,0,1,0,9,9,9,9,0,0,0-9-9h0Z"/></g></svg>